<svg width="1279" height="353" viewBox="0 0 1279 353" fill="none" xmlns="http://www.w3.org/2000/svg">
<g filter="url(#filter0_i_415_31)">
<path d="M414.53 113.779H677.857V46.6702C677.857 34.2398 672.921 22.9558 664.883 14.5895C656.224 5.59793 643.978 0.000396729 630.414 0.000396729H367.073V67.1096C367.073 78.1852 371.009 88.3677 377.563 96.3767C386.253 106.991 399.589 113.779 414.53 113.779Z" fill="#EFEFEF"/>
<path d="M430.196 25.6396C441.504 25.6396 448.482 31.1329 452.282 37.4449L441.125 43.2357C439.036 39.8862 435.07 37.2214 430.196 37.2214C421.749 37.2214 415.785 43.6227 415.785 51.9294C415.785 60.2361 421.749 66.6376 430.196 66.6376C434.223 66.6376 437.871 65.268 439.96 63.5858V59.3133H428.107V48.4162H453.054V68.3048C447.468 74.3339 439.96 78.2194 430.196 78.2194C414.77 78.2194 402.221 68.0814 402.221 51.9294C402.221 35.7774 414.77 25.6396 430.196 25.6396Z" fill="#575757"/>
<path d="M465.215 77.2976V40.4978H477.143V45.1425C479.626 42.1652 484.349 39.5747 488.845 39.5747V50.9334C488.148 50.7101 487.149 50.5463 485.908 50.5463C482.805 50.5463 478.702 51.8415 477.143 53.9852V77.2976H465.215Z" fill="#575757"/>
<path d="M524.169 77.3026V72.8813C521.838 75.4716 517.508 78.2108 511.226 78.2108C502.703 78.2108 498.904 73.4916 498.904 66.7182V40.5027H510.847V61.9098C510.847 66.3312 513.164 67.8495 517.039 67.8495C520.445 67.8495 522.776 66.0185 524.169 64.2767V40.5027H536.098V77.3026H524.169Z" fill="#575757"/>
<path d="M568.488 49.9423C565.929 49.9423 562.826 51.3118 561.358 53.2917V64.5014C562.826 66.4069 565.929 67.851 568.488 67.851C573.135 67.851 576.708 64.4121 576.708 58.8594C576.708 53.3662 573.135 49.9423 568.488 49.9423ZM561.358 91.3123H549.429V40.4893H561.358V44.7617C564.31 41.2634 568.185 39.5812 572.439 39.5812C581.809 39.5812 588.864 46.4439 588.864 58.8594C588.864 71.3493 581.809 78.212 572.439 78.212C568.261 78.212 564.461 76.6043 561.358 72.9571V91.3123Z" fill="#575757"/>
<path d="M625.898 58.8582C625.898 53.9753 622.962 49.941 617.679 49.941C612.501 49.941 609.625 53.9753 609.625 58.8582C609.625 63.8154 612.501 67.8495 617.679 67.8495C622.962 67.8495 625.898 63.8154 625.898 58.8582ZM597.303 58.8582C597.303 48.497 604.978 39.5799 617.679 39.5799C630.546 39.5799 638.145 48.497 638.145 58.8582C638.145 69.2193 630.546 78.2108 617.679 78.2108C604.978 78.2108 597.303 69.2193 597.303 58.8582Z" fill="#575757"/>
<path d="M382.62 320.529H373.642V332.23H382.62C386.328 332.23 389.023 329.923 389.023 326.38C389.023 322.851 386.328 320.529 382.62 320.529ZM388.463 351.672L380.152 337.917H373.642V351.672H367.073V314.842H383.513C390.93 314.842 395.759 319.591 395.759 326.38C395.759 332.945 391.384 336.488 386.888 337.202L396.032 351.672H388.463Z" fill="white"/>
<path d="M421.74 336.154H437.014C436.893 333.013 434.713 329.083 429.37 329.083C424.329 329.083 422.028 332.894 421.74 336.154ZM429.37 324.334C437.514 324.334 442.736 330.467 442.736 338.863V340.248H421.801C422.24 344.267 425.328 347.587 430.445 347.587C433.079 347.587 436.227 346.53 438.135 344.654L440.829 348.465C438.134 351.011 434.153 352.336 429.824 352.336C421.68 352.336 415.624 346.753 415.624 338.313C415.624 330.572 421.346 324.334 429.37 324.334Z" fill="white"/>
<path d="M472.725 330.082V351.668H466.836V330.082H462.34V325.006H466.836V323.517C466.836 317.548 470.423 314.287 475.419 314.287C477.266 314.287 478.961 314.674 480.142 315.344L478.84 319.587C478.174 319.2 477.326 319.036 476.479 319.036C474.178 319.036 472.725 320.525 472.725 323.517V325.006H478.22V330.082H472.725Z" fill="white"/>
<path d="M502.757 314.842H508.645V333.257V351.672H502.757V314.842Z" fill="white"/>
<path d="M553.227 338.313C553.227 333.623 550.426 329.485 545.37 329.485C540.375 329.485 537.559 333.623 537.559 338.313C537.559 343.061 540.375 347.2 545.37 347.2C550.426 347.2 553.227 343.061 553.227 338.313ZM531.443 338.313C531.443 330.691 536.772 324.349 545.37 324.349C554.075 324.349 559.343 330.691 559.343 338.313C559.343 345.994 554.075 352.336 545.37 352.336C536.772 352.336 531.443 345.994 531.443 338.313Z" fill="white"/>
<path d="M582.132 351.668V325.006H588.02V328.921C590.049 326.375 593.303 324.395 596.846 324.395V330.142C596.331 330.022 595.726 329.963 594.984 329.963C592.516 329.963 589.201 331.63 588.02 333.506V351.668H582.132Z" fill="white"/>
<path d="M622.889 336.154H638.163C638.042 333.013 635.862 329.083 630.518 329.083C625.478 329.083 623.177 332.894 622.889 336.154ZM630.518 324.334C638.663 324.334 643.886 330.467 643.886 338.863V340.248H622.95C623.389 344.267 626.477 347.587 631.593 347.587C634.227 347.587 637.376 346.53 639.284 344.654L641.978 348.465C639.284 351.011 635.302 352.336 630.973 352.336C622.829 352.336 616.773 346.753 616.773 338.313C616.773 330.572 622.495 324.334 630.518 324.334Z" fill="white"/>
<path d="M666.895 343.995C668.803 345.93 672.572 347.747 676.099 347.747C679.642 347.747 681.443 346.481 681.443 344.486C681.443 342.179 678.567 341.345 675.267 340.631C670.604 339.633 665.048 338.413 665.048 332.458C665.048 328.096 668.863 324.345 675.706 324.345C680.308 324.345 683.79 325.938 686.272 328.096L683.79 332.175C682.17 330.359 679.127 328.974 675.766 328.974C672.678 328.974 670.71 330.076 670.71 331.967C670.71 334.006 673.405 334.721 676.614 335.435C681.322 336.433 687.105 337.758 687.105 344.055C687.105 348.744 683.123 352.332 675.827 352.332C671.225 352.332 667.001 350.903 664.201 348.193L666.895 343.995Z" fill="white"/>
<path d="M711.07 345.484V330.076H706.574V325H711.07V317.72H716.959V325H722.469V330.076H716.959V344.055C716.959 345.871 717.867 347.196 719.548 347.196C720.668 347.196 721.743 346.749 722.182 346.258L723.589 350.62C722.53 351.617 720.789 352.332 718.034 352.332C713.477 352.332 711.07 349.905 711.07 345.484Z" fill="white"/>
<path d="M761.188 341.573C759.841 339.757 757.313 338.804 754.724 338.804C751.424 338.804 748.957 340.695 748.957 343.612C748.957 346.485 751.424 348.361 754.724 348.361C757.313 348.361 759.841 347.423 761.188 345.607V341.573ZM761.188 351.681V348.808C759.16 351.071 756.026 352.336 752.423 352.336C747.988 352.336 742.992 349.418 742.992 343.508C742.992 337.375 747.988 334.829 752.423 334.829C756.087 334.829 759.22 335.99 761.188 338.253V334.278C761.188 331.197 758.6 329.321 754.845 329.321C751.818 329.321 749.169 330.423 746.822 332.686L744.4 328.651C747.549 325.733 751.47 324.349 755.799 324.349C761.809 324.349 767.077 326.835 767.077 334.01V351.681H761.188Z" fill="white"/>
<path d="M809.863 351.668V334.995C809.863 330.856 807.729 329.472 804.414 329.472C801.386 329.472 798.797 331.243 797.45 333.059V351.668H791.561V325.006H797.45V328.638C799.251 326.554 802.733 324.336 807.002 324.336C812.845 324.336 815.752 327.432 815.752 332.896V351.668H809.863Z" fill="white"/>
<path d="M859.321 333.064C857.973 331.084 855.112 329.476 852.296 329.476C847.649 329.476 844.667 333.168 844.667 338.364C844.667 343.5 847.649 347.192 852.296 347.192C855.112 347.192 857.973 345.658 859.321 343.663V333.064ZM859.321 351.672V348.025C857.247 350.675 854.098 352.327 850.616 352.327C843.653 352.327 838.551 347.147 838.551 338.364C838.551 329.759 843.607 324.34 850.616 324.34C853.992 324.34 857.126 325.889 859.321 328.702V314.843H865.209V351.672H859.321Z" fill="white"/>
<path d="M909.788 338.313C909.788 333.623 906.987 329.485 901.931 329.485C896.936 329.485 894.12 333.623 894.12 338.313C894.12 343.061 896.936 347.2 901.931 347.2C906.987 347.2 909.788 343.061 909.788 338.313ZM888.004 338.313C888.004 330.691 893.333 324.349 901.931 324.349C910.635 324.349 915.903 330.691 915.903 338.313C915.903 345.994 910.635 352.336 901.931 352.336C893.333 352.336 888.004 345.994 888.004 338.313Z" fill="white"/>
<path d="M990.055 338.308C990.055 333.619 987.254 329.481 982.198 329.481C977.203 329.481 974.387 333.619 974.387 338.308C974.387 343.057 977.203 347.196 982.198 347.196C987.254 347.196 990.055 343.057 990.055 338.308ZM968.271 338.308C968.271 330.686 973.6 324.345 982.198 324.345C990.903 324.345 996.171 330.686 996.171 338.308C996.171 345.99 990.903 352.332 982.198 352.332C973.6 352.332 968.271 345.99 968.271 338.308Z" fill="white"/>
<path d="M1057.53 330.082V351.668H1051.64V330.082H1047.15V325.006H1051.64V323.517C1051.64 317.548 1055.23 314.287 1060.23 314.287C1062.07 314.287 1063.77 314.674 1064.95 315.344L1063.65 319.587C1062.98 319.2 1062.13 319.036 1061.3 319.036C1058.99 319.036 1057.53 320.525 1057.53 323.517V325.006H1063.03V330.082H1057.53Z" fill="white"/>
<path d="M1102.66 351.668V348.14C1100.69 350.284 1097.33 352.323 1093.06 352.323C1087.22 352.323 1084.36 349.346 1084.36 343.882V325.006H1090.24V341.783C1090.24 345.922 1092.38 347.202 1095.69 347.202C1098.68 347.202 1101.25 345.535 1102.66 343.718V325.006H1108.55V351.668H1102.66Z" fill="white"/>
<path d="M1134.21 345.484V330.076H1129.72V325H1134.21V317.72H1140.1V325H1145.61V330.076H1140.1V344.055C1140.1 345.871 1141.01 347.196 1142.69 347.196C1143.81 347.196 1144.88 346.749 1145.32 346.258L1146.73 350.62C1145.67 351.617 1143.93 352.332 1141.17 352.332C1136.62 352.332 1134.21 349.905 1134.21 345.484Z" fill="white"/>
<path d="M1186.08 351.668V348.14C1184.12 350.284 1180.75 352.323 1176.49 352.323C1170.64 352.323 1167.78 349.346 1167.78 343.882V325.006H1173.67V341.783C1173.67 345.922 1175.8 347.202 1179.12 347.202C1182.1 347.202 1184.68 345.535 1186.08 343.718V325.006H1191.97V338.337V351.668H1186.08Z" fill="white"/>
<path d="M1216.44 351.668V325.006H1222.32V328.921C1224.35 326.375 1227.61 324.395 1231.15 324.395V330.142C1230.64 330.022 1230.03 329.963 1229.29 329.963C1226.82 329.963 1223.51 331.63 1222.32 333.506V351.668H1216.44Z" fill="white"/>
<path d="M1272.86 338.308C1272.86 333.619 1270.06 329.481 1265 329.481C1260.01 329.481 1257.19 333.619 1257.19 338.308C1257.19 343.057 1260.01 347.196 1265 347.196C1270.06 347.196 1272.86 343.057 1272.86 338.308ZM1251.08 338.308C1251.08 330.686 1256.41 324.345 1265 324.345C1273.71 324.345 1278.98 330.686 1278.98 338.308C1278.98 345.99 1273.71 352.332 1265 352.332C1256.41 352.332 1251.08 345.99 1251.08 338.308Z" fill="white"/>
<path d="M422.236 186.797L407.945 227.75H436.677L422.236 186.797ZM448.818 264.907L443.596 249.648H401.027L395.805 264.907H367.073L405.644 164.139H438.827L477.55 264.907H448.818Z" fill="#1B995B"/>
<path d="M530.403 162.469C552.837 162.469 566.658 173.351 574.197 185.886L552.065 197.378C547.917 190.724 540.076 185.439 530.403 185.439C513.66 185.439 501.822 198.123 501.822 214.602C501.822 231.067 513.66 243.75 530.403 243.75C538.395 243.75 545.616 241.041 549.764 237.706V229.251H526.255V207.65H575.726V247.085C564.66 259.024 549.764 266.72 530.403 266.72C499.824 266.72 474.937 246.623 474.937 214.602C474.937 182.566 499.824 162.469 530.403 162.469Z" fill="#1B995B"/>
<path d="M638.574 186.037H617.684V208.695H638.574C645.493 208.695 651.321 204.318 651.321 197.366C651.321 190.414 645.493 186.037 638.574 186.037ZM648.415 264.907L631.202 230.757H617.684V264.907H591.253V164.124H642.571C665.309 164.124 678.221 178.937 678.221 197.679C678.221 215.2 667.307 224.564 657.785 227.884L678.675 264.907H648.415Z" fill="#1B995B"/>
<path d="M742.438 185.439C725.377 185.439 714.478 198.137 714.478 214.602C714.478 230.918 725.377 243.765 742.438 243.765C759.332 243.765 770.247 230.918 770.247 214.602C770.247 198.137 759.332 185.439 742.438 185.439ZM742.438 162.469C773.774 162.469 797.132 183.936 797.132 214.602C797.132 245.269 773.774 266.72 742.438 266.72C711.102 266.72 687.593 245.269 687.593 214.602C687.593 183.936 711.102 162.469 742.438 162.469Z" fill="#1B995B"/>
<path d="M817.107 231.22C824.479 238.47 835.848 244.514 849.836 244.514C858.904 244.514 864.429 240.732 864.429 235.909C864.429 230.163 857.829 227.9 846.914 225.623C830.02 222.303 806.36 218.075 806.36 194.197C806.36 177.286 820.952 162.622 847.217 162.622C863.657 162.622 877.947 167.46 888.862 176.675L874.42 195.254C865.807 188.317 854.589 184.833 845.537 184.833C836.772 184.833 833.396 188.317 833.396 192.693C833.396 197.978 839.693 199.794 851.062 201.908C867.956 205.377 891.314 210.215 891.314 233.036C891.314 253.282 876.101 266.725 848.61 266.725C827.856 266.725 813.414 260.383 803.12 250.707L817.107 231.22Z" fill="#1B995B"/>
<path d="M903.621 264.911V164.128H978.752V186.042H930.052V202.819H977.677V224.866H930.052V242.998H978.752V264.911H903.621Z" fill="#1B995B"/>
<path d="M1041.9 186.042H1020.54V208.699H1041.9C1048.97 208.699 1054.19 204.323 1054.19 197.519C1054.19 190.567 1048.97 186.042 1041.9 186.042ZM994.126 264.911V164.128H1045.43C1068.48 164.128 1081.08 179.387 1081.08 197.683C1081.08 215.8 1068.48 230.761 1045.43 230.761H1020.54V264.911H994.126Z" fill="#1B995B"/>
<path d="M1126.11 186.792L1111.82 227.746H1140.55L1126.11 186.792ZM1152.69 264.903L1147.47 249.644H1104.9L1099.68 264.903H1070.94L1109.52 164.135H1142.7L1181.42 264.903H1152.69Z" fill="#1B995B"/>
<path d="M1178.82 214.6C1178.82 183.472 1202.78 162.467 1233.51 162.467C1259.02 162.467 1272.23 176.222 1279 189.516L1256.25 200.1C1252.87 192.091 1244.12 185.437 1233.51 185.437C1217.54 185.437 1205.7 198.135 1205.7 214.6C1205.7 231.065 1217.54 243.763 1233.51 243.763C1244.12 243.763 1252.87 237.109 1256.25 229.1L1279 239.684C1272.38 252.68 1259.02 266.733 1233.51 266.733C1202.78 266.733 1178.82 245.579 1178.82 214.6Z" fill="#1B995B"/>
</g>
<g filter="url(#filter1_i_415_31)">
<path d="M54.3917 143.409C54.3917 143.409 165.718 110.593 133.934 307.479C133.934 307.479 146.657 311.844 162.588 311.844C178.519 311.844 190.281 307.479 190.281 307.479C191.693 306.876 130.24 53.804 313.617 33.2702C272.479 26.7606 171.118 43.1965 157.119 149.204C161.255 160.805 163.91 174.852 164.26 189.323C163.164 181.015 159.978 150.723 128.805 134.298C101.982 120.151 69.1026 128 54.3917 143.409Z" fill="#199554"/>
<path d="M261.203 58.3802C254.536 62.1431 248.367 66.5089 242.707 71.4777C281.438 96.7346 307.053 140.125 307.053 189.321C307.053 267.135 242.989 330.445 164.26 330.445C85.5196 330.445 21.4565 267.135 21.4565 189.321C21.4565 111.518 85.5196 48.2083 164.26 48.2083C173.604 48.2083 182.745 49.1128 191.603 50.8211C192.733 49.8609 193.874 48.9117 195.049 47.9961C201.354 43.0385 208.076 38.7173 215.036 34.9545C199.038 29.7959 181.976 27.0046 164.26 27.0046C73.6899 27.0046 0 99.8164 0 189.321C0 278.826 73.6899 351.648 164.26 351.648C254.83 351.648 328.509 278.826 328.509 189.321C328.509 135.625 301.98 87.9471 261.203 58.3802Z" fill="#199554"/>
</g>
<defs>
<filter id="filter0_i_415_31" x="367.073" y="0" width="911.927" height="356.336" filterUnits="userSpaceOnUse" color-interpolation-filters="sRGB">
<feFlood flood-opacity="0" result="BackgroundImageFix"/>
<feBlend mode="normal" in="SourceGraphic" in2="BackgroundImageFix" result="shape"/>
<feColorMatrix in="SourceAlpha" type="matrix" values="0 0 0 0 0 0 0 0 0 0 0 0 0 0 0 0 0 0 127 0" result="hardAlpha"/>
<feOffset dy="4"/>
<feGaussianBlur stdDeviation="2"/>
<feComposite in2="hardAlpha" operator="arithmetic" k2="-1" k3="1"/>
<feColorMatrix type="matrix" values="0 0 0 0 0 0 0 0 0 0 0 0 0 0 0 0 0 0 0.5 0"/>
<feBlend mode="normal" in2="shape" result="effect1_innerShadow_415_31"/>
</filter>
<filter id="filter1_i_415_31" x="0" y="27.0039" width="328.509" height="328.645" filterUnits="userSpaceOnUse" color-interpolation-filters="sRGB">
<feFlood flood-opacity="0" result="BackgroundImageFix"/>
<feBlend mode="normal" in="SourceGraphic" in2="BackgroundImageFix" result="shape"/>
<feColorMatrix in="SourceAlpha" type="matrix" values="0 0 0 0 0 0 0 0 0 0 0 0 0 0 0 0 0 0 127 0" result="hardAlpha"/>
<feOffset dy="4"/>
<feGaussianBlur stdDeviation="2"/>
<feComposite in2="hardAlpha" operator="arithmetic" k2="-1" k3="1"/>
<feColorMatrix type="matrix" values="0 0 0 0 0 0 0 0 0 0 0 0 0 0 0 0 0 0 0.5 0"/>
<feBlend mode="normal" in2="shape" result="effect1_innerShadow_415_31"/>
</filter>
</defs>
</svg>
